. 
 
http://www.torrenting.com          :     Once & For all ;)


               www . Torrenting . Com 

(((((((((((((= Enjoy No RAR releases =))))))))))))))))))))


...................................NFO:....................................

.








































          
          
              
              
                    
                    
                    
                    

Filthy.McNastiest.2005.DVDRip.x264.AC3-SiC

Poster:
[img]http://img811.imageshack.us/img811/251/mv5bmtc5nzg1odm1of5bml5.jpg[/img]

IMDB Link: 
http://www.imdb.com/title/tt0466793/

Description:
Phil the demon is back in the sequel that begs the question, just how nasty is Mcnasty? This time around a small chested tart is looking to become the popular girl if only she could have bigger boobs. SO by conjuring up the spirits she unleashes Phil to Grant her wish for a bigger set of milk pillows, but of course there is a price which ends in Phil Having Lots more sexual bloody carnage with the help of Scrotal Vengeance Villain, Razor McBleed.  This takes the Filthy Universe to the next level of Nasty and shoves it square into your Tooters!

General
Complete name                    : Filthy.McNastier.2005.DVDRip.x264.AC3-SiC.mkv
Format                           : Matroska
Format version                   : Version 2
File size                        : 977 MiB
Duration                         : 48mn 33s
Overall bit rate                 : 2 812 Kbps
Writing application              : HandBrake 0.9.5
Writing library                  : libmkv 0.6.4.1

Video
ID                               : 1
Format                           : AVC
Format/Info                      : Advanced Video Codec
Format profile                   : High@L3.0
Format settings, CABAC           : Yes
Format settings, ReFrames        : 4 frames
Codec ID                         : V_MPEG4/ISO/AVC
Duration                         : 48mn 33s
Bit rate                         : 2 611 Kbps
Width                            : 720 pixels
Height                           : 480 pixels
Display aspect ratio             : 4:3
Frame rate mode                  : Variable
Frame rate                       : 29.970 fps
Standard                         : NTSC
Color space                      : YUV
Chroma subsampling               : 4:2:0
Bit depth                        : 8 bits
Scan type                        : Progressive
Bits/(Pixel*Frame)               : 0.252
Stream size                      : 868 MiB (89%)
Writing library                  : x264 core 112
Encoding settings                : cabac=1 / ref=3 / deblock=1:0:0 / analyse=0x3:0x113 / me=hex / subme=7 / psy=1 / psy_rd=1.00:0.00 / mixed_ref=1 / me_range=16 / chroma_me=1 / trellis=1 / 8x8dct=1 / cqm=0 / deadzone=21,11 / fast_pskip=1 / chroma_qp_offset=-2 / threads=6 / sliced_threads=0 / nr=0 / decimate=1 / interlaced=0 / constrained_intra=0 / bframes=3 / b_pyramid=2 / b_adapt=2 / b_bias=0 / direct=1 / weightb=1 / open_gop=0 / weightp=2 / keyint=300 / keyint_min=29 / scenecut=40 / intra_refresh=0 / rc_lookahead=50 / rc=abr / mbtree=1 / bitrate=2611 / ratetol=1.0 / qcomp=0.60 / qpmin=3 / qpmax=51 / qpstep=4 / ip_ratio=1.40 / aq=1:1.00
Language                         : English
Color primaries                  : BT.601-6 525, BT.1358 525, BT.1700 NTSC, SMPTE 170M
Transfer characteristics         : BT.709-5, BT.1361
Matrix coefficients              : BT.601-6 525, BT.1358 525, BT.1700 NTSC, SMPTE 170M

Audio
ID                               : 2
Format                           : AC-3
Format/Info                      : Audio Coding 3
Mode extension                   : CM (complete main)
Codec ID                         : A_AC3
Duration                         : 48mn 33s
Bit rate mode                    : Constant
Bit rate                         : 256 Kbps
Channel(s)                       : 2 channels
Channel positions                : Front: L R
Sampling rate                    : 48.0 KHz
Bit depth                        : 16 bits
Compression mode                 : Lossy
Stream size                      : 88.9 MiB (9%)
Language                         : English

Menu
00:00:00.000                     : Chapter 1
00:02:54.507                     : Chapter 2
00:04:11.084                     : Chapter 3
00:08:45.191                     : Chapter 4
00:10:27.301                     : Chapter 5
00:14:59.899                     : Chapter 6
00:22:10.662                     : Chapter 7
00:24:43.982                     : Chapter 8
00:26:33.391                     : Chapter 9
00:31:16.875                     : Chapter 10
00:35:39.370                     : Chapter 11
00:39:16.754                     : Chapter 12
00:42:19.236                     : Chapter 13
00:44:54.692                     : Chapter 14
00:47:27.744                     : Chapter 15







Screenshots:
[img]http://img151.imageshack.us/img151/6624/vlcsnap2012010220h02m00.png[/img]
[img]http://img508.imageshack.us/img508/1760/vlcsnap2012010220h02m11.png[/img]
[img]http://img830.imageshack.us/img830/2668/vlcsnap2012010220h02m19.png[/img]
[img]http://img51.imageshack.us/img51/3582/vlcsnap2012010220h03m11.png[/img]




Note :  

Source: Friend of a friend. 

Enjoy!

Respects to T00NG0D, CM8, Rx, ELEKTRI4KA, PA, YeFsTe, MrRep and everyone in the struggle...